<svg id="logo" xmlns="http://www.w3.org/2000/svg" xmlns:xlink="http://www.w3.org/1999/xlink" width="255.572" height="30.433" viewBox="0 0 255.572 30.433">
  <defs>
    <linearGradient id="linear-gradient" x1="0.955" y1="1.151" x2="-0.153" y2="0.067" gradientUnits="objectBoundingBox">
      <stop offset="0" stop-color="#ee4023"/>
      <stop offset="0.378" stop-color="#eb3e22"/>
      <stop offset="0.589" stop-color="#e33821"/>
      <stop offset="0.758" stop-color="#d52e1f"/>
      <stop offset="0.905" stop-color="#c2211c"/>
      <stop offset="1" stop-color="#b1151a"/>
    </linearGradient>
    <linearGradient id="linear-gradient-2" x1="0.5" y1="1.068" x2="0.5" y2="-0.038" gradientUnits="objectBoundingBox">
      <stop offset="0" stop-color="#ee4023"/>
      <stop offset="0.167" stop-color="#e93c22"/>
      <stop offset="0.355" stop-color="#db3320"/>
      <stop offset="0.552" stop-color="#c5231d"/>
      <stop offset="0.691" stop-color="#b1151a"/>
      <stop offset="0.867" stop-color="#b1151a"/>
      <stop offset="1" stop-color="#960c10"/>
    </linearGradient>
    <linearGradient id="linear-gradient-3" x1="0.96" y1="0.539" x2="0.087" y2="0.477" gradientUnits="objectBoundingBox">
      <stop offset="0" stop-color="#ee4023" stop-opacity="0"/>
      <stop offset="0.515" stop-color="#960c10" stop-opacity="0"/>
      <stop offset="0.553" stop-color="#920a0e" stop-opacity="0.114"/>
      <stop offset="0.694" stop-color="#850608" stop-opacity="0.494"/>
      <stop offset="0.821" stop-color="#7b0203" stop-opacity="0.769"/>
      <stop offset="0.927" stop-color="#760000" stop-opacity="0.937"/>
      <stop offset="1" stop-color="#740000"/>
    </linearGradient>
    <linearGradient id="linear-gradient-4" x1="0.023" y1="0.151" x2="0.966" y2="0.841" gradientUnits="objectBoundingBox">
      <stop offset="0.248" stop-color="#ee4023"/>
      <stop offset="0.392" stop-color="#e93c22"/>
      <stop offset="0.554" stop-color="#db3320"/>
      <stop offset="0.723" stop-color="#c5231d"/>
      <stop offset="0.842" stop-color="#b1151a"/>
      <stop offset="0.906" stop-color="#a91217"/>
      <stop offset="0.998" stop-color="#960c10"/>
      <stop offset="1" stop-color="#960c10"/>
    </linearGradient>
    <linearGradient id="linear-gradient-5" y1="0.5" x2="1" y2="0.5" gradientUnits="objectBoundingBox">
      <stop offset="0" stop-color="#ee4023"/>
      <stop offset="0.177" stop-color="#e93c22"/>
      <stop offset="0.377" stop-color="#db3320"/>
      <stop offset="0.586" stop-color="#c5231d"/>
      <stop offset="0.733" stop-color="#b1151a"/>
      <stop offset="1" stop-color="#960c10"/>
    </linearGradient>
    <linearGradient id="linear-gradient-6" x1="0.482" y1="0.985" x2="0.53" y2="0.078" gradientUnits="objectBoundingBox">
      <stop offset="0" stop-color="#ee4023"/>
      <stop offset="0.259" stop-color="#ca2a1b"/>
      <stop offset="0.661" stop-color="#960c10"/>
      <stop offset="1" stop-color="#740000"/>
    </linearGradient>
    <linearGradient id="linear-gradient-7" x1="0.13" y1="-0.021" x2="0.988" y2="1.208" gradientUnits="objectBoundingBox">
      <stop offset="0" stop-color="#ee4023" stop-opacity="0"/>
      <stop offset="0.208" stop-color="#d4351d" stop-opacity="0.165"/>
      <stop offset="0.591" stop-color="#901a0e" stop-opacity="0.592"/>
      <stop offset="0.903" stop-color="#500000"/>
      <stop offset="1" stop-color="#500000"/>
    </linearGradient>
  </defs>
  <g id="그룹_9" data-name="그룹 9" transform="translate(110.673)">
    <g id="그룹_2" data-name="그룹 2" transform="translate(64.81 0.218)">
      <rect id="사각형_2" data-name="사각형 2" width="2.359" height="10.351" transform="translate(11.872)" fill="#3d3d3d"/>
      <g id="그룹_1" data-name="그룹 1" transform="translate(0 0.693)">
        <path id="패스_1" data-name="패스 1" d="M649.3,177.388l-10.289.859v-1.993h6.162v-4.37a.816.816,0,0,0-.821-.81h-7.513v1.781h6.078v1.837h-5.328a.816.816,0,0,0-.813.811v3.8a.813.813,0,0,0,.877.817l11.776-.943Z" transform="translate(-636.775 -171.073)" fill="#3d3d3d"/>
        <path id="패스_2" data-name="패스 2" d="M649.129,185.435H642.1v-1.869H639.79v6.405a.79.79,0,0,0,.785.79h9.987a.783.783,0,0,0,.781-.79v-6.588h-2.213Zm-7.03,1.82h7.03v1.566H642.1Z" transform="translate(-637.213 -172.86)" fill="#3d3d3d"/>
      </g>
    </g>
    <path id="패스_3" data-name="패스 3" d="M662.474,183.7h7.376a.817.817,0,0,0,.815-.813V172.611a.815.815,0,0,0-.815-.815h-7.376a.813.813,0,0,0-.815.815v10.272a.815.815,0,0,0,.815.813m1.445-10.008h4.537v8.091h-4.537Z" transform="translate(-575.577 -170.267)" fill="#3d3d3d"/>
    <g id="그룹_4" data-name="그룹 4" transform="translate(42.803 0.097)">
      <g id="그룹_3" data-name="그룹 3" transform="translate(0 0.999)">
        <path id="패스_4" data-name="패스 4" d="M617.076,171.294l-1.252.138c0,.072.735,7.4-4.793,12.14l1.371,1.606a15.4,15.4,0,0,0,4.321-6.072l3.808,5.145,1.708-1.265L617.5,176.6a18.535,18.535,0,0,0,.48-4.5.82.82,0,0,0-.9-.8" transform="translate(-611.031 -171.29)" fill="#3d3d3d"/>
      </g>
      <rect id="사각형_3" data-name="사각형 3" width="2.359" height="18.835" transform="translate(13.204)" fill="#3d3d3d"/>
    </g>
    <g id="그룹_5" data-name="그룹 5" transform="translate(0 0.08)">
      <path id="패스_5" data-name="패스 5" d="M563.078,181.685V173.87h5.144v-1.962h-6.448a.81.81,0,0,0-.816.811v10.4a.812.812,0,0,0,.884.813l7.743-.713-.195-2.108Z" transform="translate(-560.959 -170.363)" fill="#3d3d3d"/>
      <path id="패스_6" data-name="패스 6" d="M576.151,170.1v.018h-.119V177.4h-1.724v-6.856H574.3v-.006h-2.221v.006h-.132v17.814h.132v.005H574.3v-.005h.007v-9.071h1.724v9.664h.119v.018h2.241V170.1Z" transform="translate(-562.554 -170.1)" fill="#3d3d3d"/>
    </g>
    <g id="그룹_6" data-name="그룹 6" transform="translate(21.28 0.277)">
      <path id="패스_7" data-name="패스 7" d="M592,178.547l3.926,3.241,1.35-1.627-3.951-3.277a9.325,9.325,0,0,0,1.629-3.938l.024-.262a.813.813,0,0,0-.815-.884h-7.228l.042,2.07h5.59c-.638,1.557-2.264,4.3-6.713,6.713l1.009,1.864a19.694,19.694,0,0,0,5.138-3.9" transform="translate(-585.853 -170.544)" fill="#3d3d3d"/>
      <path id="패스_8" data-name="패스 8" d="M592.546,189.056v-4h-2.185v5.072a.814.814,0,0,0,.815.816h11.278v-1.89Z" transform="translate(-586.507 -172.469)" fill="#3d3d3d"/>
      <path id="패스_9" data-name="패스 9" d="M600.579,170.331h-.094v5.081h-3.372V177.3h3.372V183.8h2.357V170.331Z" transform="translate(-587.488 -170.331)" fill="#3d3d3d"/>
    </g>
    <rect id="사각형_4" data-name="사각형 4" width="2.357" height="18.835" transform="translate(98.128 0.097)" fill="#3d3d3d"/>
    <g id="그룹_7" data-name="그룹 7" transform="translate(105.665)">
      <path id="패스_10" data-name="패스 10" d="M693.678,173.126l6.562,3.691,1.036-1.848-6.683-3.76c.019-.074.034-.148.05-.217a.815.815,0,0,0-.816-.985l-1.283.037c0,.144-.053,3.542-6.18,4.833l.5,2.071c3.793-.8,5.792-2.37,6.81-3.822" transform="translate(-684.829 -170.007)" fill="#3d3d3d"/>
      <path id="패스_11" data-name="패스 11" d="M702.423,180.979V179.1H684.568v1.882h7.958v1.542h-5.181V184.4h10.114v1.147h-9.522a.564.564,0,0,0-.568.571v3.66a.568.568,0,0,0,.568.574h12.221v-1.884h-10.9v-1.289h9.894a.571.571,0,0,0,.572-.573v-3.517a.574.574,0,0,0-.572-.571h-4.493v-1.542Z" transform="translate(-684.568 -171.327)" fill="#3d3d3d"/>
    </g>
    <g id="그룹_8" data-name="그룹 8" transform="translate(126.957 0.33)">
      <path id="패스_12" data-name="패스 12" d="M717.976,177.774l1.7.793a11.128,11.128,0,0,0,.98-6.035l-.014-.116a.81.81,0,0,0-.806-.674h-8.618v1.888h7.637a9.723,9.723,0,0,1-.88,4.144" transform="translate(-709.729 -170.589)" fill="#3d3d3d"/>
      <path id="패스_13" data-name="패스 13" d="M722.475,180.272l-6.734.275v-3.731H713.4v3.832l-3.92.165.078,1.877,12.993-.525Z" transform="translate(-709.476 -171.326)" fill="#3d3d3d"/>
      <path id="패스_14" data-name="패스 14" d="M726.747,177.068v-6.675H724.4V184.1h2.347V178.95h2.837v-1.882Z" transform="translate(-711.642 -170.393)" fill="#3d3d3d"/>
      <path id="패스_15" data-name="패스 15" d="M715.591,185.632h-2.3v4.53a.818.818,0,0,0,.811.815h11.738v-1.893H715.591Z" transform="translate(-710.03 -172.605)" fill="#3d3d3d"/>
    </g>
  </g>
  <g id="그룹_10" data-name="그룹 10" transform="translate(110.673 24.192)">
    <path id="패스_16" data-name="패스 16" d="M562.388,198.45a3,3,0,1,1,0,5.991H560.8V198.45Zm.131,5.493c1.651,0,2.327-.987,2.327-2.5,0-1.767-1.017-2.548-2.685-2.5h-.83v5Z" transform="translate(-560.802 -198.325)" fill="#3d3d3d"/>
    <path id="패스_17" data-name="패스 17" d="M568.66,204.441l2.327-5.991h.617l2.344,5.991h-.578l-.627-1.619h-2.92l-.618,1.619Zm3.9-2.117-1.271-3.377-1.292,3.377Z" transform="translate(-561.95 -198.325)" fill="#3d3d3d"/>
    <path id="패스_18" data-name="패스 18" d="M578.183,204.441V198.45h3.491v.5h-2.962v2.15h2.849v.5h-2.849v2.348H581.8v.5Z" transform="translate(-563.342 -198.325)" fill="#3d3d3d"/>
    <path id="패스_19" data-name="패스 19" d="M586.01,202.964a1.109,1.109,0,0,0,1.113,1.1c.749,0,1.036-.769,1.036-1.494V198.45h.528v4.04a2.252,2.252,0,0,1-.406,1.486,1.651,1.651,0,0,1-1.329.59c-.949,0-1.4-.731-1.511-1.6Z" transform="translate(-564.403 -198.325)" fill="#3d3d3d"/>
    <path id="패스_20" data-name="패스 20" d="M593.335,204.441V198.45h3.491v.5h-2.959v2.15h2.846v.5h-2.846v2.348h3.082v.5Z" transform="translate(-565.556 -198.325)" fill="#3d3d3d"/>
    <path id="패스_21" data-name="패스 21" d="M603.728,204.544c-1.685,0-2.62-1.254-2.62-3.121s.935-3.12,2.62-3.12,2.62,1.253,2.62,3.12S605.413,204.544,603.728,204.544Zm0-.5c1.466,0,2.05-1.311,2.05-2.621s-.584-2.623-2.05-2.623-2.05,1.312-2.05,2.623S602.262,204.044,603.728,204.044Z" transform="translate(-566.692 -198.303)" fill="#3d3d3d"/>
    <path id="패스_22" data-name="패스 22" d="M611.042,198.45h.6l3.238,5.268h.017V198.45h.529v5.991h-.666l-3.174-5.178h-.016v5.178h-.528Z" transform="translate(-568.144 -198.325)" fill="#3d3d3d"/>
    <path id="패스_23" data-name="패스 23" d="M625.184,204.441V198.45h.846l2.2,5.219,2.255-5.219h.8v5.991h-.528V198.9h-.016l-2.245,5.536h-.529l-2.244-5.51h-.017v5.51Z" transform="translate(-570.211 -198.325)" fill="#3d3d3d"/>
    <path id="패스_24" data-name="패스 24" d="M636.989,198.45v3.874a1.624,1.624,0,1,0,3.239,0V198.45h.529v3.882a2.15,2.15,0,1,1-4.3,0V198.45Z" transform="translate(-571.859 -198.325)" fill="#3d3d3d"/>
    <path id="패스_25" data-name="패스 25" d="M647,204.544a1.715,1.715,0,0,1-1.75-1.685h.57c.015.92.682,1.185,1.471,1.185a1.291,1.291,0,0,0,1.416-1.153c0-.6-.422-.879-.918-1.045-.953-.324-2.4-.63-2.4-1.925a1.721,1.721,0,0,1,1.871-1.618,1.693,1.693,0,0,1,1.913,1.428h-.57c-.016-.739-.677-.931-1.277-.931s-1.366.316-1.366,1.048c0,1.7,3.318.928,3.318,3C649.278,204.144,648.179,204.544,647,204.544Z" transform="translate(-573.143 -198.303)" fill="#3d3d3d"/>
    <path id="패스_26" data-name="패스 26" d="M653.775,204.441V198.45h3.491v.5H654.3v2.15h2.848v.5H654.3v2.348h3.085v.5Z" transform="translate(-574.389 -198.325)" fill="#3d3d3d"/>
    <path id="패스_27" data-name="패스 27" d="M662.362,198.45v3.874a1.623,1.623,0,1,0,3.238,0V198.45h.528v3.882a2.149,2.149,0,1,1-4.294,0V198.45Z" transform="translate(-575.567 -198.325)" fill="#3d3d3d"/>
    <path id="패스_28" data-name="패스 28" d="M670.994,204.441V198.45h.848l2.2,5.219,2.254-5.219h.8v5.991h-.528V198.9h-.017l-2.245,5.536h-.529l-2.245-5.51h-.017v5.51Z" transform="translate(-576.906 -198.325)" fill="#3d3d3d"/>
    <path id="패스_29" data-name="패스 29" d="M689.538,204.544c-1.684,0-2.62-1.254-2.62-3.121s.936-3.12,2.62-3.12,2.62,1.253,2.62,3.12S691.222,204.544,689.538,204.544Zm0-.5c1.466,0,2.051-1.311,2.051-2.621S691,198.8,689.538,198.8s-2.05,1.312-2.05,2.623S688.075,204.044,689.538,204.044Z" transform="translate(-579.233 -198.303)" fill="#3d3d3d"/>
    <path id="패스_30" data-name="패스 30" d="M696.88,204.441V198.45h3.32v.5h-2.793v2.116h2.7v.5h-2.7v2.88Z" transform="translate(-580.689 -198.325)" fill="#3d3d3d"/>
    <path id="패스_31" data-name="패스 31" d="M708.336,204.441l2.327-5.991h.619l2.343,5.991h-.576l-.628-1.619H709.5l-.619,1.619Zm3.9-2.117-1.268-3.377-1.293,3.377Z" transform="translate(-582.363 -198.325)" fill="#3d3d3d"/>
    <path id="패스_32" data-name="패스 32" d="M718.4,204.441h-.531V198.45h1.921a2.375,2.375,0,0,1,1.385.315,1.365,1.365,0,0,1,.6,1.253,1.341,1.341,0,0,1-1.134,1.288v.014c.749.125.913.639.985,1.337a4.532,4.532,0,0,0,.31,1.784h-.611a4.982,4.982,0,0,1-.2-1.244c-.122-1.37-.2-1.611-1.269-1.611H718.4Zm1.13-3.352c.748,0,1.677-.051,1.677-1.071,0-1.154-1.06-1.071-1.62-1.071H718.4v2.141Z" transform="translate(-583.756 -198.325)" fill="#3d3d3d"/>
    <path id="패스_33" data-name="패스 33" d="M727.367,198.947h-1.9v-.5h4.295v.5H727.9l-.009,5.494h-.521Z" transform="translate(-584.867 -198.325)" fill="#3d3d3d"/>
  </g>
  <g id="그룹_13" data-name="그룹 13">
    <path id="패스_34" data-name="패스 34" d="M427.811,170.16H420.3a1.018,1.018,0,0,0-1.018,1.017v28.58h7.742V177.935h.784a13.307,13.307,0,0,1,13.308,13.307v.775h7.775v-.775A21.081,21.081,0,0,0,427.811,170.16Z" transform="translate(-419.286 -169.324)" fill="url(#linear-gradient)"/>
    <path id="패스_35" data-name="패스 35" d="M534.983,191.772,522.53,169.514a.641.641,0,0,0-1.18-.07l0-.01-16.828,30.08h8.87l8.528-15.244,4.2,7.5H517.72l-4.331,7.742h25.928Z" transform="translate(-438.64 -169.081)" fill="url(#linear-gradient-2)"/>
    <g id="그룹_11" data-name="그룹 11" transform="translate(74.748 22.692)">
      <path id="패스_36" data-name="패스 36" d="M520.326,198.437l-4.331,7.741h25.928l-4.333-7.741Z" transform="translate(-515.994 -198.437)" fill="url(#linear-gradient-3)"/>
    </g>
    <g id="그룹_12" data-name="그룹 12" transform="translate(10.658 22.693)">
      <path id="패스_37" data-name="패스 37" d="M433.075,206.179h18.95v-7.74H434.093a1.018,1.018,0,0,0-1.018,1.019Z" transform="translate(-433.075 -198.439)" fill="url(#linear-gradient-4)"/>
    </g>
    <path id="패스_38" data-name="패스 38" d="M492.319,178.379v-8.647a.651.651,0,0,0-1.086-.486v0l-13.995,11.537-14-11.537v0a.65.65,0,0,0-1.085.485v29.781H469.9v-14.75l6.731,5.55a1.018,1.018,0,0,0,.611.2,1,1,0,0,0,.638-.227Z" transform="translate(-429.021 -169.079)" fill="url(#linear-gradient-5)"/>
    <path id="패스_39" data-name="패스 39" d="M498.9,202.244V181.111l-7.744,6.385v14.748Z" transform="translate(-435.607 -171.811)" fill="url(#linear-gradient-6)"/>
    <path id="패스_40" data-name="패스 40" d="M429.3,170.16h.785a21.082,21.082,0,0,1,21.083,21.082v.775h-7.775v-.775a13.307,13.307,0,0,0-13.308-13.307H429.3Z" transform="translate(-421.56 -169.324)" fill="url(#linear-gradient-7)"/>
  </g>
</svg>
