<svg xmlns="http://www.w3.org/2000/svg" width="110.829" height="34.69" viewBox="0 0 110.829 34.69">
  <g id="aesop_logo_w" transform="translate(-1.2 161)">
    <path id="패스_1" data-name="패스 1" d="M11.378-158.673C10.291-156,5.006-144.058,2.722-139.1L1.2-135.793H2.809c1.24,0,1.609-.065,1.609-.3a45.394,45.394,0,0,1,2.131-6.481l1-2.545,4.676.043,4.676.065.87,1.957c.478,1.066,1.283,3.132,1.783,4.567l.913,2.61,2.218.043c1.631.022,2.175-.022,2.088-.217-.043-.152-1.566-3.545-3.349-7.547-2.98-6.72-6.329-14.615-7.025-16.594-.261-.761-.348-.8-1.174-.8h-.892Zm2.806,7.286c.957,2.24,1.762,4.176,1.762,4.285,0,.152-1.218.239-3.7.239-2.784,0-3.7-.065-3.7-.261a68.642,68.642,0,0,1,3.7-8.5C12.335-155.541,13.205-153.627,14.184-151.387Z" fill="#fffef2"/>
    <path id="패스_2" data-name="패스 2" d="M138-146.456v.544h10V-147H138Z" transform="translate(-107.047 -10.955)" fill="#fffef2"/>
    <path id="패스_3" data-name="패스 3" d="M401.878-126.636a7.034,7.034,0,0,0-4.111,2.61l-.565.761.152-1.631.13-1.631h-3.5v10.439c0,5.742-.065,11.81-.131,13.484l-.152,3.045h3.763l-.152-5.981-.13-5.981.957,1.022c2.327,2.479,6.416,2.806,9.591.783,4-2.523,5.046-9.439,2.11-13.789a8.044,8.044,0,0,0-4.937-3.11A6.182,6.182,0,0,0,401.878-126.636Zm2.61,2.044c2.371,1.022,3.61,4.459,3.154,8.743-.391,3.7-2.044,5.524-5,5.524a4.832,4.832,0,0,1-4.785-3.219c-.87-1.936-.718-6.612.261-8.5a5.91,5.91,0,0,1,2.61-2.5A6.019,6.019,0,0,1,404.487-124.592Z" transform="translate(-307.135 -26.752)" fill="#fffef2"/>
    <path id="패스_4" data-name="패스 4" d="M126.773-125.6a8,8,0,0,0-5.5,6.22,14.355,14.355,0,0,0,.413,6.546c1.392,3.589,5.394,5.611,9.831,4.959a9.076,9.076,0,0,0,4.437-1.631,1.744,1.744,0,0,0,.8-1.631c.022-.609-.022-1.087-.13-1.087a4.464,4.464,0,0,0-1.153.892,6.258,6.258,0,0,1-4.741,1.827,4.422,4.422,0,0,1-2.936-.674c-1.936-1.066-2.806-2.653-3.154-5.589l-.13-1.24h13.136l-.109-1.7c-.239-3.545-1.849-5.916-4.633-6.764A13.057,13.057,0,0,0,126.773-125.6Zm5.2,1.762a4.429,4.429,0,0,1,1.783,2.98c.065.435.174,1.153.239,1.566l.13.761h-9.439l.13-1.131a5.293,5.293,0,0,1,3.676-4.741A4.932,4.932,0,0,1,131.971-123.837Z" transform="translate(-93.798 -27.463)" fill="#fffef2"/>
    <path id="패스_5" data-name="패스 5" d="M218.1-125.616a5.316,5.316,0,0,0-3.48,5.763c.326,1.957,1.718,3.154,5.046,4.306,2.914,1.022,3.458,1.348,3.871,2.349a2.671,2.671,0,0,1-1.5,3.567c-2.305,1.044-5.7-.152-6.351-2.218-.217-.674-.587-.37-.87.7-.13.522-.326,1.174-.413,1.457-.152.435-.043.544,1,1.022,3.85,1.762,8.547.87,10.287-1.936.587-.979.652-1.24.652-2.98,0-1.588-.065-2-.457-2.523-.87-1.153-1.936-1.7-5.263-2.675-2.023-.587-3.067-1.457-3.241-2.74a2.466,2.466,0,0,1,1.522-2.719,3.914,3.914,0,0,1,5.285,1.7c.174.391.391.718.478.718a3.52,3.52,0,0,0,.544-1.479c.326-1.348.326-1.479-.022-1.74C224.035-125.921,219.838-126.269,218.1-125.616Z" transform="translate(-166.788 -27.424)" fill="#fffef2"/>
    <path id="패스_6" data-name="패스 6" d="M293.589-125.587c-4.2,1.348-6.372,5.154-5.807,10.2.457,4.154,3.088,6.807,7.416,7.46a10.65,10.65,0,0,0,8.417-2.305c1.936-1.74,3.11-5.5,2.632-8.417a7.946,7.946,0,0,0-5.829-6.916A13.96,13.96,0,0,0,293.589-125.587Zm4.98,1.153a5.425,5.425,0,0,1,3.545,3.763,14.45,14.45,0,0,1,.152,6.873c-.826,2.806-2.871,4.546-5.35,4.546-3.48-.022-5.459-2.806-5.459-7.721,0-4.176,1.2-6.459,3.871-7.416A5.116,5.116,0,0,1,298.57-124.435Z" transform="translate(-224.185 -27.387)" fill="#fffef2"/>
    <path id="패스_7" data-name="패스 7" d="M491.054-64.77a2.5,2.5,0,0,0-1.022.652,2.311,2.311,0,0,0,3.11,3.415,2.325,2.325,0,0,0-.522-3.915,5.749,5.749,0,0,0-.913-.283C491.619-64.878,491.315-64.813,491.054-64.77Zm1.936.848a2.185,2.185,0,0,1,.37,2.284,1.723,1.723,0,0,1-1.762,1.066,1.491,1.491,0,0,1-1.348-.674,1.644,1.644,0,0,1-.261-2.131A1.978,1.978,0,0,1,492.989-63.921Z" transform="translate(-381.957 -75.199)" fill="#fffef2"/>
    <path id="패스_8" data-name="패스 8" d="M496-58.7c0,.718.087,1.3.217,1.3s.217-.3.217-.674v-.674l.565.674a1.816,1.816,0,0,0,.913.674c.283,0,.218-.13-.217-.587l-.565-.565.457-.37c.391-.326.413-.435.174-.739A1.512,1.512,0,0,0,496.74-60H496Zm1.3-.652a.39.39,0,0,1-.435.435.39.39,0,0,1-.435-.435.39.39,0,0,1,.435-.435A.39.39,0,0,1,497.3-59.348Z" transform="translate(-387.186 -79.034)" fill="#fffef2"/>
  </g>
</svg>
