<svg id="instargram" xmlns="http://www.w3.org/2000/svg" width="36.893" height="36.873" viewBox="0 0 36.893 36.873">
  <g id="그룹_25" data-name="그룹 25" transform="translate(0 0)">
    <path id="SVGID_1_" d="M17.1,9.126a13.264,13.264,0,0,0-4.481.858A9.3,9.3,0,0,0,9.378,12.12a8.849,8.849,0,0,0-2.115,3.266A13.8,13.8,0,0,0,6.4,19.867c-.084,1.968-.1,2.6-.1,7.6.021,5,.042,5.632.126,7.6a13.021,13.021,0,0,0,.858,4.46A9.184,9.184,0,0,0,9.42,42.794a8.849,8.849,0,0,0,3.266,2.115,13.8,13.8,0,0,0,4.481.858c1.968.084,2.6.1,7.6.1,5-.021,5.632-.021,7.6-.126a13.264,13.264,0,0,0,4.481-.858,9.184,9.184,0,0,0,3.266-2.136,8.849,8.849,0,0,0,2.115-3.266,13.8,13.8,0,0,0,.858-4.481c.084-1.968.1-2.6.1-7.6-.021-5-.021-5.632-.126-7.6a13.264,13.264,0,0,0-.858-4.481,9.184,9.184,0,0,0-2.136-3.266,8.849,8.849,0,0,0-3.266-2.115,13.8,13.8,0,0,0-4.481-.858C30.337,9.021,29.709,9,24.7,9c-5,.021-5.632.042-7.6.126m.209,33.313A10.224,10.224,0,0,1,13.9,41.81a6.158,6.158,0,0,1-3.5-3.5A10.2,10.2,0,0,1,9.755,34.9c-.084-1.947-.1-2.534-.126-7.454,0-4.921,0-5.507.084-7.454a10.225,10.225,0,0,1,.628-3.413,6.158,6.158,0,0,1,3.5-3.5,10.78,10.78,0,0,1,3.413-.649c1.947-.084,2.534-.1,7.433-.126,4.921,0,5.507,0,7.454.084a10.224,10.224,0,0,1,3.413.628A5.543,5.543,0,0,1,37.666,14.4a5.707,5.707,0,0,1,1.382,2.115A10.78,10.78,0,0,1,39.7,19.93c.084,1.947.1,2.534.126,7.433.021,4.921,0,5.507-.084,7.454a10.512,10.512,0,0,1-.628,3.434,6.158,6.158,0,0,1-3.5,3.5A10.78,10.78,0,0,1,32.2,42.4c-1.947.084-2.534.1-7.454.126-4.9.021-5.486,0-7.433-.084M32.347,17.585a2.209,2.209,0,1,0,2.2-2.219,2.216,2.216,0,0,0-2.2,2.219M15.283,27.447a9.464,9.464,0,1,0,9.443-9.485,9.454,9.454,0,0,0-9.443,9.485m3.308,0a6.145,6.145,0,1,1,6.156,6.135,6.161,6.161,0,0,1-6.156-6.135" transform="translate(-6.3 -9)" fill="#ccc"/>
  </g>
</svg>
