<svg xmlns="http://www.w3.org/2000/svg" width="196" height="30.648" viewBox="0 0 196 30.648">
  <g id="logo_w" transform="translate(-111.806 -320.658)">
    <g id="그룹_1" data-name="그룹 1" transform="translate(111.806 320.658)">
      <path id="패스_1" data-name="패스 1" d="M123.123,360.929s.115-5.876-.65-8.066-1.633-5.712-7.345-9.393c-1.993-1.289-2.654-1.169-2.851-1.049-.213.12-.524.65-.464,3.014s-.115,8.879,2.665,11.752,4.937,3.55,8.645,3.741" transform="translate(-111.806 -330.505)" fill="#00abcd"/>
      <path id="패스_2" data-name="패스 2" d="M130.025,335.573a24.5,24.5,0,0,1,11.949-9.906c.639-.186.956-.4,1-.917s-.759-1.595-3.129-2.72c-3.244-1.545-9.824-1.365-9.824-1.365s-6.569-.18-9.808,1.365c-2.37,1.125-3.2,2.212-3.14,2.72.06.524.366.732,1,.917a24.5,24.5,0,0,1,11.943,9.906" transform="translate(-114.197 -320.658)" fill="#00abcd"/>
      <path id="패스_3" data-name="패스 3" d="M138.087,363.753c1.18,0,2.261-.055,3.249-.12a62.032,62.032,0,0,0-.208-7.252,20.024,20.024,0,0,0-3.042-8.3,20.068,20.068,0,0,0-3.031,8.3,65.632,65.632,0,0,0-.2,7.252c.983.071,2.07.12,3.233.12" transform="translate(-122.26 -333.105)" fill="#00abcd"/>
      <path id="패스_4" data-name="패스 4" d="M149.054,360.929s-.12-5.876.65-8.066,1.633-5.712,7.345-9.393c1.988-1.289,2.649-1.169,2.851-1.049s.524.65.459,3.014.126,8.879-2.665,11.752-4.942,3.55-8.639,3.741" transform="translate(-128.71 -330.505)" fill="#00abcd"/>
      <path id="패스_5" data-name="패스 5" d="M114.872,331.508a.9.9,0,0,1-.672-.917.947.947,0,0,1,.95-.95,1.025,1.025,0,0,1,.382.082,20.579,20.579,0,0,1,7,5.51l-.071.1a22.757,22.757,0,0,0-7.585-3.828" transform="translate(-112.893 -324.735)" fill="#00abcd"/>
      <path id="패스_6" data-name="패스 6" d="M113.07,335.524a.964.964,0,0,1-.721-.89.947.947,0,0,1,.912-.994,1.121,1.121,0,0,1,.426.087,19.95,19.95,0,0,1,7.023,5.057l-.076.093a20.92,20.92,0,0,0-7.563-3.353" transform="translate(-112.053 -326.551)" fill="#00abcd"/>
      <path id="패스_7" data-name="패스 7" d="M112.748,339.964a.926.926,0,0,1,.191-1.824,1.235,1.235,0,0,1,.371.065s4.161,1.7,6.335,4.325l-.071.115a17.78,17.78,0,0,0-6.826-2.681" transform="translate(-111.916 -328.593)" fill="#00abcd"/>
      <path id="패스_8" data-name="패스 8" d="M159.8,331.508a.907.907,0,0,0,.683-.917.953.953,0,0,0-.961-.95,1.044,1.044,0,0,0-.377.082,20.531,20.531,0,0,0-6.99,5.51l.071.1a22.76,22.76,0,0,1,7.574-3.828" transform="translate(-130.119 -324.735)" fill="#00abcd"/>
      <path id="패스_9" data-name="패스 9" d="M161.562,335.524a.958.958,0,0,0-.2-1.884,1.142,1.142,0,0,0-.426.087,20.044,20.044,0,0,0-7.034,5.057l.076.093a21.014,21.014,0,0,1,7.585-3.353" transform="translate(-130.913 -326.551)" fill="#00abcd"/>
      <path id="패스_10" data-name="패스 10" d="M162.527,339.964a.92.92,0,0,0,.694-.852.9.9,0,0,0-.874-.972,1.192,1.192,0,0,0-.377.065s-4.167,1.7-6.34,4.325l.071.115a17.716,17.716,0,0,1,6.826-2.681" transform="translate(-131.698 -328.593)" fill="#00abcd"/>
    </g>
    <g id="그룹_7" data-name="그룹 7" transform="translate(149.827 322.663)">
      <g id="그룹_2" data-name="그룹 2" transform="translate(66.301 1.027)">
        <path id="패스_11" data-name="패스 11" d="M331.936,361.223H319.452V356.98h-4.123v4.243H302.84v2.67h29.1Z" transform="translate(-302.84 -340.177)" fill="#fff"/>
        <path id="패스_12" data-name="패스 12" d="M318.406,341.511c7.361,0,13.336-3.424,13.336-7.651s-5.974-7.651-13.336-7.651-13.336,3.424-13.336,7.651,5.969,7.651,13.336,7.651m0-12.877c4.888,0,8.852,2.343,8.852,5.226s-3.965,5.226-8.852,5.226-8.852-2.343-8.852-5.226,3.959-5.226,8.852-5.226" transform="translate(-303.852 -326.21)" fill="#fff"/>
      </g>
      <g id="그룹_3" data-name="그룹 3" transform="translate(97.74)">
        <path id="패스_13" data-name="패스 13" d="M389.506,364.75h-29.1v2.67h29.1Z" transform="translate(-360.41 -342.677)" fill="#fff"/>
        <rect id="사각형_6" data-name="사각형 6" width="3.899" height="5.226" transform="translate(12.544)" fill="#fff"/>
        <path id="패스_14" data-name="패스 14" d="M365.785,331.47v2.321h14.848s-1.076,5.641-17.753,9.622l.912,2.49s11.446-2.239,16.836-6.22,4.991-8.213,2.916-8.213Z" transform="translate(-361.531 -327.571)" fill="#fff"/>
        <path id="패스_15" data-name="패스 15" d="M391.647,345.54a17.655,17.655,0,0,0,9.021,4.56l-1.442,2.381a22.989,22.989,0,0,1-11.036-5.2Z" transform="translate(-373.02 -333.957)" fill="#fff"/>
      </g>
      <g id="그룹_4" data-name="그룹 4" transform="translate(128.343 2.49)">
        <path id="패스_16" data-name="패스 16" d="M418.159,329.39V331.8H429.4v5.111H418.132V339.2h10.742s-1.163,5.559-12.424,9.475l1.185,1.928s15.493-4.664,15.493-12.254v-7.339a1.479,1.479,0,0,0-1.491-1.589C430.08,329.417,418.159,329.39,418.159,329.39Z" transform="translate(-416.45 -329.117)" fill="#fff"/>
        <rect id="사각형_7" data-name="사각형 7" width="3.648" height="23.973" transform="translate(21.838)" fill="#fff"/>
        <rect id="사각형_8" data-name="사각형 8" width="5.974" height="2.654" transform="translate(23.662 8.131)" fill="#fff"/>
      </g>
      <g id="그룹_5" data-name="그룹 5" transform="translate(33.312 0.759)">
        <path id="패스_17" data-name="패스 17" d="M288.6,337.137h4.161v-2.916H288.6V326.27h-4v24.285h4Z" transform="translate(-261.571 -325.97)" fill="#fff"/>
        <path id="패스_18" data-name="패스 18" d="M252.3,349.611c5.455,0,9.873-5.346,9.873-11.948s-4.418-11.943-9.873-11.943-9.873,5.346-9.873,11.943,4.423,11.948,9.873,11.948m0-21.478c3.244,0,5.876,4.265,5.876,9.529s-2.627,9.529-5.876,9.529-5.87-4.265-5.87-9.529,2.627-9.529,5.87-9.529" transform="translate(-242.43 -325.72)" fill="#fff"/>
      </g>
      <path id="패스_19" data-name="패스 19" d="M331.675,361.134H319.169V356.88h-4.128v4.254H302.53v2.67h29.145Z" transform="translate(-236.398 -339.105)" fill="#fff"/>
      <path id="패스_20" data-name="패스 20" d="M318.127,341.393c7.378,0,13.357-3.429,13.357-7.662s-5.98-7.662-13.357-7.662-13.357,3.429-13.357,7.662,5.98,7.662,13.357,7.662m0-12.9c4.9,0,8.869,2.343,8.869,5.237s-3.97,5.237-8.869,5.237-8.869-2.348-8.869-5.237,3.97-5.237,8.869-5.237" transform="translate(-237.415 -325.12)" fill="#fff"/>
      <g id="그룹_6" data-name="그룹 6" transform="translate(0 1.425)">
        <path id="패스_21" data-name="패스 21" d="M211.552,336.677H198.681v-2.015h11.173v-2.3H187.148v-3.113h22.706v-2.3H183.139v5.3a2.562,2.562,0,0,0,2.67,2.43H194.3v2.015H181.43v2.43h30.117v-2.441Z" transform="translate(-181.43 -326.94)" fill="#fff"/>
        <path id="패스_22" data-name="패스 22" d="M184.21,357.037c0,3.222,6.067,5.827,13.554,5.827s13.549-2.61,13.549-5.827-6.067-5.827-13.549-5.827-13.554,2.61-13.554,5.827m22.859-.06c0,1.977-4.167,3.577-9.305,3.577s-9.311-1.606-9.311-3.577,4.167-3.582,9.311-3.582,9.305,1.606,9.305,3.582" transform="translate(-182.692 -337.956)" fill="#fff"/>
      </g>
    </g>
  </g>
</svg>
