<svg id="naver" xmlns="http://www.w3.org/2000/svg" width="42.108" height="35.934" viewBox="0 0 42.108 35.934">
  <path id="패스_46" data-name="패스 46" d="M157.487,288.29H128.681a6.711,6.711,0,0,0-6.651,6.771v16.062a6.711,6.711,0,0,0,6.651,6.771H138.6l3.386,5.593a1.492,1.492,0,0,0,.11.159,1.126,1.126,0,0,0,1.964.006.829.829,0,0,0,.114-.167l3.386-5.593h9.923a6.711,6.711,0,0,0,6.651-6.771V295.059A6.711,6.711,0,0,0,157.487,288.29Z" transform="translate(-122.03 -288.29)" fill="#ccc"/>
  <g id="그룹_23" data-name="그룹 23" transform="translate(4.58 8.287)">
    <g id="그룹_22" data-name="그룹 22" transform="translate(0 0)">
      <path id="패스_47" data-name="패스 47" d="M150.121,334.782a3.425,3.425,0,0,0-2.192,1.015V331.71H145.35v10.74h2.6v-.841a2.472,2.472,0,0,0,2.164,1.11,3.8,3.8,0,0,0,3.634-4.009S153.621,334.782,150.121,334.782Zm-.568,5.669a1.657,1.657,0,1,1,1.656-1.658A1.658,1.658,0,0,1,149.553,340.451Z" transform="translate(-145.35 -331.468)" fill="#fbfbfb"/>
      <path id="패스_48" data-name="패스 48" d="M192.35,330.48v2.485s1.177-.053,1.177,2.137v6.358h2.485v-6.945S196.117,330.48,192.35,330.48Z" transform="translate(-183.118 -330.48)" fill="#fbfbfb"/>
      <path id="패스_49" data-name="패스 49" d="M224.5,347.52s-4.26,0-4.26,3.977c0,0-.137,3.924,4.26,3.924,0,0,4.358-.006,4.358-3.924C228.855,351.5,229,347.52,224.5,347.52Zm0,5.635a1.657,1.657,0,1,1,1.656-1.658A1.658,1.658,0,0,1,224.5,353.155Z" transform="translate(-205.528 -344.173)" fill="#fbfbfb"/>
      <path id="패스_50" data-name="패스 50" d="M276.56,347.778v.721a2.816,2.816,0,0,0-2.163-.982s-3.647-.153-3.647,3.95c0,0-.041,3.824,3.547,3.824a2.949,2.949,0,0,0,2.263-.982v.6s.181,1.884-1.642,1.884H274.3v2.284h1a3.742,3.742,0,0,0,3.767-4.027v-7.273Zm-1.542,5.374a1.657,1.657,0,1,1,1.656-1.658A1.656,1.656,0,0,1,275.018,353.152Z" transform="translate(-246.119 -344.17)" fill="#fbfbfb"/>
    </g>
  </g>
</svg>
