<svg id="youtube" xmlns="http://www.w3.org/2000/svg" width="45.764" height="32.036" viewBox="0 0 45.764 32.036">
  <path id="패스_23" data-name="패스 23" d="M176.418,238.253a5.733,5.733,0,0,0-4.045-4.045c-3.57-.958-17.88-.958-17.88-.958s-14.312,0-17.88.958a5.736,5.736,0,0,0-4.048,4.045c-.955,3.57-.955,11.016-.955,11.016s0,7.446.955,11.016a5.728,5.728,0,0,0,4.048,4.045c3.57.955,17.88.955,17.88.955s14.31,0,17.88-.955a5.733,5.733,0,0,0,4.045-4.045c.955-3.57.955-11.016.955-11.016S177.373,241.823,176.418,238.253Zm-26.5,17.88V242.4l11.889,6.866Z" transform="translate(-131.61 -233.25)" fill="#ccc"/>
</svg>
