<svg xmlns="http://www.w3.org/2000/svg" width="118.038" height="134.547" viewBox="0 0 118.038 134.547">
  <g id="introduce03" transform="translate(-90.093 112.996) rotate(45)">
    <path id="패스_1" data-name="패스 1" d="M15.248-157.788c-1.5,3.692-8.795,20.171-11.946,27.014l-2.1,4.562H3.421c1.711,0,2.221-.09,2.221-.42a62.651,62.651,0,0,1,2.942-8.945l1.381-3.512,6.453.06,6.453.09,1.2,2.7c.66,1.471,1.771,4.322,2.461,6.3l1.261,3.6,3.062.06c2.251.03,3-.03,2.882-.3-.06-.21-2.161-4.893-4.622-10.416-4.112-9.275-8.735-20.171-9.7-22.9C19.06-160.94,18.94-161,17.8-161H16.568Zm3.872,10.055c1.321,3.092,2.431,5.763,2.431,5.913,0,.21-1.681.33-5.1.33-3.842,0-5.1-.09-5.1-.36,0-.72,4.893-11.976,5.1-11.736C16.568-153.466,17.769-150.825,19.12-147.733Z"/>
    <path id="패스_2" data-name="패스 2" d="M138-146.25v.75h13.807V-147H138Z" transform="translate(-95.738 -9.798)"/>
    <path id="패스_3" data-name="패스 3" d="M404.986-126.569a9.707,9.707,0,0,0-5.673,3.6l-.78,1.051.21-2.251.18-2.251H394.09v14.408c0,7.924-.09,16.3-.18,18.61l-.21,4.2h5.193l-.21-8.254-.18-8.254,1.321,1.411c3.212,3.422,8.855,3.872,13.237,1.081,5.523-3.482,6.964-13.027,2.911-19.03a11.1,11.1,0,0,0-6.814-4.292A8.532,8.532,0,0,0,404.986-126.569Zm3.6,2.822c3.272,1.411,4.983,6.153,4.352,12.066-.54,5.1-2.822,7.624-6.9,7.624-3.182-.03-5.253-1.411-6.6-4.442-1.2-2.671-.991-9.125.36-11.736a8.156,8.156,0,0,1,3.6-3.452A8.307,8.307,0,0,1,408.588-123.747Z" transform="translate(-274.687 -23.925)"/>
    <path id="패스_4" data-name="패스 4" d="M128.942-125.483a11.042,11.042,0,0,0-7.594,8.585,19.812,19.812,0,0,0,.57,9.035c1.921,4.953,7.444,7.744,13.567,6.844a12.525,12.525,0,0,0,6.123-2.251,2.407,2.407,0,0,0,1.111-2.251c.03-.84-.03-1.5-.18-1.5a6.161,6.161,0,0,0-1.591,1.231,8.637,8.637,0,0,1-6.544,2.521c-2.131,0-2.581-.09-4.052-.931-2.671-1.471-3.872-3.662-4.352-7.714l-.18-1.711h18.13l-.15-2.341c-.33-4.893-2.551-8.164-6.393-9.335A18.02,18.02,0,0,0,128.942-125.483Zm7.174,2.431a6.112,6.112,0,0,1,2.461,4.112c.09.6.24,1.591.33,2.161l.18,1.051H126.06l.18-1.561c.39-3.3,2.431-5.913,5.073-6.544A6.807,6.807,0,0,1,136.116-123.051Z" transform="translate(-83.888 -24.561)"/>
    <path id="패스_5" data-name="패스 5" d="M219.524-125.488a7.337,7.337,0,0,0-4.8,7.954c.45,2.7,2.371,4.352,6.964,5.943,4.022,1.411,4.773,1.861,5.343,3.242a3.686,3.686,0,0,1-2.071,4.923c-3.182,1.441-7.864-.21-8.765-3.062-.3-.931-.81-.51-1.2.961-.18.72-.45,1.621-.57,2.011-.21.6-.06.75,1.381,1.411,5.313,2.431,11.8,1.2,14.2-2.671.81-1.351.9-1.711.9-4.112,0-2.191-.09-2.761-.63-3.482-1.2-1.591-2.671-2.341-7.264-3.692-2.792-.81-4.232-2.011-4.472-3.782a3.4,3.4,0,0,1,2.1-3.752c2.882-1.291,6.213-.24,7.294,2.341.24.54.54.991.66.991a4.858,4.858,0,0,0,.75-2.041c.45-1.861.45-2.041-.03-2.4C227.719-125.908,221.926-126.388,219.524-125.488Z" transform="translate(-149.167 -24.526)"/>
    <path id="패스_6" data-name="패스 6" d="M295.83-125.43c-5.793,1.861-8.795,7.114-8.014,14.078.63,5.733,4.262,9.4,10.236,10.3a14.7,14.7,0,0,0,11.616-3.182c2.671-2.4,4.292-7.594,3.632-11.616-.78-4.953-3.452-8.134-8.044-9.545A19.266,19.266,0,0,0,295.83-125.43Zm6.874,1.591a7.487,7.487,0,0,1,4.893,5.193,19.944,19.944,0,0,1,.21,9.485c-1.141,3.872-3.962,6.273-7.384,6.273-4.8-.03-7.534-3.872-7.534-10.656,0-5.763,1.651-8.915,5.343-10.236A7.06,7.06,0,0,1,302.7-123.839Z" transform="translate(-200.499 -24.494)"/>
    <path id="패스_7" data-name="패스 7" d="M491.714-64.72a3.453,3.453,0,0,0-1.411.9c-2.882,2.882,1.171,7.354,4.292,4.713a3.208,3.208,0,0,0-.72-5.4,7.932,7.932,0,0,0-1.261-.39C492.494-64.87,492.074-64.78,491.714-64.72Zm2.671,1.171a3.016,3.016,0,0,1,.51,3.152,2.378,2.378,0,0,1-2.431,1.471,2.058,2.058,0,0,1-1.861-.931,2.269,2.269,0,0,1-.36-2.942A2.729,2.729,0,0,1,494.385-63.549Z" transform="translate(-341.604 -67.255)"/>
    <path id="패스_8" data-name="패스 8" d="M496-58.2c0,.991.12,1.8.3,1.8s.3-.42.3-.93v-.931l.78.931a2.507,2.507,0,0,0,1.261.93c.39,0,.3-.18-.3-.81l-.78-.78.63-.51c.54-.45.57-.6.24-1.021a2.087,2.087,0,0,0-1.411-.48H496Zm1.8-.9a.539.539,0,0,1-.6.6.539.539,0,0,1-.6-.6.539.539,0,0,1,.6-.6A.539.539,0,0,1,497.8-59.1Z" transform="translate(-346.28 -70.684)"/>
  </g>
</svg>
