<svg xmlns="http://www.w3.org/2000/svg" width="429.453" height="134.419" viewBox="0 0 429.453 134.419">
  <g id="introduce06" transform="translate(-1.2 161)" opacity="0.1">
    <path id="패스_1" data-name="패스 1" d="M40.641-151.983C36.427-141.617,15.948-95.349,7.1-76.135L1.2-63.325H7.436c4.8,0,6.236-.253,6.236-1.18,0-2.023,4.214-14.748,8.259-25.114l3.877-9.86,18.119.169,18.119.253,3.371,7.585c1.854,4.13,4.972,12.136,6.911,17.7l3.54,10.113,8.6.169c6.321.084,8.428-.084,8.09-.843-.169-.59-6.068-13.737-12.978-29.244-11.546-26.041-24.524-56.633-27.221-64.3C51.344-160.831,51.007-161,47.8-161H44.349ZM51.512-123.75c3.708,8.68,6.826,16.181,6.826,16.6,0,.59-4.719.927-14.327.927-10.787,0-14.327-.253-14.327-1.011,0-2.023,13.737-33.626,14.327-32.952C44.349-139.847,47.72-132.431,51.512-123.75Z" transform="translate(0)"/>
    <path id="패스_2" data-name="패스 2" d="M138-144.893v2.107h38.767V-147H138Z" transform="translate(-21.511 -2.201)"/>
    <path id="패스_3" data-name="패스 3" d="M425.387-126.128a27.255,27.255,0,0,0-15.928,10.113l-2.191,2.95.59-6.321.506-6.321H394.8v40.452c0,22.249-.253,45.762-.506,52.251l-.59,11.8h14.58l-.59-23.176-.506-23.176,3.708,3.961c9.018,9.607,24.861,10.872,37.165,3.034,15.507-9.776,19.552-36.576,8.175-53.431-3.961-5.815-11.124-10.366-19.13-12.051C432.13-127.055,430.444-127.055,425.387-126.128Zm10.113,7.922c9.186,3.961,13.99,17.276,12.22,33.879C446.2-70,439.8-62.921,428.337-62.921c-8.933-.084-14.748-3.961-18.541-12.473-3.371-7.5-2.781-25.62,1.011-32.952a22.9,22.9,0,0,1,10.113-9.692C424.629-119.639,431.961-119.723,435.5-118.206Z" transform="translate(-61.719 -5.376)"/>
    <path id="패스_4" data-name="패스 4" d="M143.175-124.721c-11.04,3.455-18.625,11.967-21.322,24.1-1.517,6.826-.758,19.383,1.6,25.367,5.394,13.905,20.9,21.743,38.092,19.215,7.5-1.011,12.81-3.034,17.192-6.321,2.36-1.854,2.865-2.781,3.118-6.321.084-2.36-.084-4.214-.506-4.214s-2.444,1.517-4.467,3.455c-5.646,5.141-10.366,6.995-18.372,7.079-5.984,0-7.248-.253-11.377-2.613-7.5-4.13-10.872-10.282-12.22-21.659l-.506-4.8h50.9l-.421-6.574c-.927-13.737-7.163-22.923-17.951-26.21C160.367-126.238,148.822-126.491,143.175-124.721Zm20.142,6.826c3.455,2.191,6.152,6.742,6.911,11.546.253,1.686.674,4.467.927,6.068l.506,2.95H135.085l.506-4.382c1.1-9.27,6.826-16.6,14.243-18.372A19.111,19.111,0,0,1,163.317-117.895Z" transform="translate(-18.849 -5.519)"/>
    <path id="패스_5" data-name="패스 5" d="M228.887-124.644A20.6,20.6,0,0,0,215.4-102.311c1.264,7.585,6.658,12.22,19.552,16.687,11.293,3.961,13.4,5.225,15,9.1,2.36,5.478-.084,11.209-5.815,13.821-8.933,4.045-22.08-.59-24.608-8.6-.843-2.613-2.275-1.433-3.371,2.7-.506,2.023-1.264,4.551-1.6,5.646-.59,1.685-.169,2.107,3.877,3.961,14.917,6.826,33.12,3.371,39.862-7.5,2.276-3.792,2.528-4.8,2.528-11.546,0-6.152-.253-7.753-1.77-9.776-3.371-4.467-7.5-6.574-20.395-10.366-7.838-2.275-11.883-5.646-12.557-10.619-.59-4.8,1.433-8.427,5.9-10.534,8.091-3.624,17.445-.674,20.479,6.573.674,1.517,1.517,2.781,1.854,2.781.421,0,1.348-2.528,2.107-5.731,1.264-5.225,1.264-5.731-.084-6.742C251.894-125.824,235.629-127.173,228.887-124.644Z" transform="translate(-33.516 -5.511)"/>
    <path id="패스_6" data-name="패스 6" d="M310.538-124.4c-16.265,5.225-24.693,19.973-22.5,39.525,1.77,16.1,11.967,26.378,28.738,28.906,11.546,1.854,24.693-1.77,32.615-8.933,7.5-6.742,12.051-21.322,10.2-32.615-2.191-13.905-9.692-22.839-22.586-26.8C329.921-126.506,317.364-126.59,310.538-124.4Zm19.3,4.467c6.068,1.517,11.377,7.163,13.737,14.58,2.275,7.5,2.613,19.72.59,26.631-3.2,10.872-11.124,17.614-20.732,17.614-13.484-.084-21.153-10.872-21.153-29.918,0-16.181,4.635-25.03,15-28.738C321.156-121.2,324.864-121.2,329.837-119.932Z" transform="translate(-45.05 -5.504)"/>
    <path id="패스_7" data-name="패스 7" d="M496.045-64.394a9.7,9.7,0,0,0-3.961,2.528c-8.09,8.09,3.287,20.647,12.052,13.231,5.141-4.3,4.045-12.641-2.023-15.17a22.268,22.268,0,0,0-3.539-1.1C498.236-64.816,497.056-64.563,496.045-64.394Zm7.5,3.287c2.023,1.854,2.781,6.4,1.433,8.849-1.517,3.034-3.371,4.045-6.826,4.13-2.36,0-3.539-.59-5.225-2.613-2.444-2.865-2.7-5.225-1.011-8.259A7.663,7.663,0,0,1,503.545-61.108Z" transform="translate(-76.755 -15.111)"/>
    <path id="패스_8" data-name="패스 8" d="M496-54.943c0,2.781.337,5.056.843,5.056s.843-1.18.843-2.613v-2.613l2.191,2.613c1.18,1.433,2.781,2.613,3.539,2.613,1.1,0,.843-.506-.843-2.275l-2.191-2.191,1.77-1.433c1.517-1.264,1.6-1.686.674-2.865A5.86,5.86,0,0,0,498.865-60H496Zm5.057-2.528a1.513,1.513,0,0,1-1.686,1.686,1.513,1.513,0,0,1-1.685-1.686,1.513,1.513,0,0,1,1.685-1.686A1.513,1.513,0,0,1,501.056-57.472Z" transform="translate(-77.805 -15.882)"/>
  </g>
</svg>
